<svg xmlns="http://www.w3.org/2000/svg" xmlns:xlink="http://www.w3.org/1999/xlink" width="1080" zoomAndPan="magnify" viewBox="0 0 810 809.999993" height="1080" preserveAspectRatio="xMidYMid meet" version="1.0"><defs><clipPath id="df9adeda1b"><path d="M 405 0 C 181.324219 0 0 181.324219 0 405 C 0 628.675781 181.324219 810 405 810 C 628.675781 810 810 628.675781 810 405 C 810 181.324219 628.675781 0 405 0 Z M 405 0 " clip-rule="nonzero"/></clipPath><clipPath id="640e6e93ce"><path d="M 0 0 L 810 0 L 810 810 L 0 810 Z M 0 0 " clip-rule="nonzero"/></clipPath><clipPath id="a9513deb07"><path d="M 405 0 C 181.324219 0 0 181.324219 0 405 C 0 628.675781 181.324219 810 405 810 C 628.675781 810 810 628.675781 810 405 C 810 181.324219 628.675781 0 405 0 Z M 405 0 " clip-rule="nonzero"/></clipPath><clipPath id="7050bf25a5"><rect x="0" width="810" y="0" height="810"/></clipPath><clipPath id="5d800c1701"><path d="M 213.613281 160.023438 L 596.113281 160.023438 L 596.113281 649.773438 L 213.613281 649.773438 Z M 213.613281 160.023438 " clip-rule="nonzero"/></clipPath></defs><g clip-path="url(#df9adeda1b)"><g transform="matrix(1, 0, 0, 1, 0, 0.000000000000039746)"><g clip-path="url(#7050bf25a5)"><g clip-path="url(#640e6e93ce)"><g clip-path="url(#a9513deb07)"><rect x="-178.2" width="1166.4" fill="#f8c954" height="1166.39999" y="-178.199998" fill-opacity="1"/></g></g></g></g></g><g clip-path="url(#5d800c1701)"><path fill="#ffffff" d="M 581.757812 509.140625 C 589.617188 509.140625 596.128906 502.625 596.128906 494.769531 L 596.128906 174.394531 C 596.128906 166.539062 589.617188 160.023438 581.757812 160.023438 L 304.5 160.023438 C 255.253906 160.023438 215.398438 200.070312 215.398438 249.125 L 215.398438 534.625 C 214.441406 539.414062 213.867188 544.207031 213.867188 549.1875 C 213.867188 587.125 244.714844 617.976562 282.65625 617.976562 L 295.300781 617.976562 L 295.300781 638.476562 C 295.300781 642.886719 297.984375 646.71875 301.816406 648.25 C 305.839844 649.972656 310.4375 649.015625 313.503906 645.949219 L 341.480469 617.976562 L 345.695312 617.976562 L 374.4375 646.71875 C 376.542969 648.824219 379.226562 649.78125 381.910156 649.78125 C 383.25 649.78125 384.589844 649.589844 385.933594 649.015625 C 389.957031 647.292969 392.449219 643.460938 392.449219 639.246094 L 392.449219 618.167969 L 581.757812 618.167969 C 589.617188 618.167969 596.128906 611.652344 596.128906 603.796875 C 596.128906 595.941406 589.617188 589.425781 581.757812 589.425781 L 543.054688 589.425781 L 543.054688 509.332031 L 581.757812 509.332031 Z M 514.3125 589.234375 L 392.449219 589.234375 L 392.449219 553.210938 C 392.449219 547.269531 387.65625 542.480469 381.71875 542.480469 L 305.648438 542.480469 C 299.707031 542.480469 294.917969 547.269531 294.917969 553.210938 L 294.917969 589.234375 L 282.269531 589.234375 C 260.234375 589.234375 242.226562 571.222656 242.226562 549.1875 C 242.226562 545.355469 242.800781 541.714844 243.757812 538.265625 C 243.949219 537.882812 243.949219 537.308594 244.140625 536.925781 C 244.523438 535.964844 244.90625 535.007812 245.289062 533.859375 C 245.289062 533.667969 245.289062 533.667969 245.480469 533.476562 C 249.507812 523.894531 257.171875 516.230469 266.75 512.207031 C 266.75 512.207031 266.75 512.207031 266.941406 512.207031 C 268.09375 511.824219 269.050781 511.441406 270.199219 511.054688 C 270.390625 511.054688 270.773438 510.863281 270.964844 510.863281 C 271.925781 510.671875 272.691406 510.289062 273.648438 510.097656 C 274.03125 510.097656 274.414062 509.90625 274.796875 509.90625 C 275.757812 509.714844 276.523438 509.523438 277.480469 509.523438 C 277.863281 509.523438 278.246094 509.332031 278.632812 509.332031 C 279.972656 509.140625 281.121094 509.140625 282.464844 509.140625 L 514.3125 509.140625 Z M 514.3125 589.234375 " fill-opacity="1" fill-rule="nonzero"/></g></svg>