<svg xmlns="http://www.w3.org/2000/svg" xmlns:xlink="http://www.w3.org/1999/xlink" width="1080" zoomAndPan="magnify" viewBox="0 0 810 809.999993" height="1080" preserveAspectRatio="xMidYMid meet" version="1.0"><path fill="#f8c954" d="M 809.882812 404.886719 C 809.882812 411.515625 809.71875 418.140625 809.394531 424.761719 C 809.070312 431.378906 808.582031 437.988281 807.933594 444.585938 C 807.28125 451.179688 806.472656 457.757812 805.5 464.3125 C 804.527344 470.871094 803.394531 477.398438 802.101562 483.898438 C 800.808594 490.398438 799.355469 496.863281 797.746094 503.292969 C 796.132812 509.722656 794.367188 516.109375 792.441406 522.453125 C 790.519531 528.792969 788.441406 535.085938 786.207031 541.328125 C 783.972656 547.566406 781.589844 553.75 779.054688 559.871094 C 776.515625 565.996094 773.832031 572.054688 771 578.046875 C 768.164062 584.039062 765.183594 589.957031 762.0625 595.800781 C 758.9375 601.648438 755.671875 607.410156 752.261719 613.097656 C 748.855469 618.78125 745.308594 624.378906 741.628906 629.890625 C 737.945312 635.402344 734.128906 640.820312 730.183594 646.144531 C 726.234375 651.464844 722.15625 656.691406 717.953125 661.8125 C 713.746094 666.9375 709.417969 671.953125 704.96875 676.867188 C 700.519531 681.777344 695.949219 686.574219 691.261719 691.261719 C 686.574219 695.949219 681.777344 700.519531 676.867188 704.96875 C 671.953125 709.421875 666.9375 713.746094 661.8125 717.953125 C 656.691406 722.15625 651.464844 726.234375 646.144531 730.183594 C 640.820312 734.128906 635.402344 737.945312 629.890625 741.628906 C 624.378906 745.308594 618.78125 748.855469 613.097656 752.261719 C 607.410156 755.671875 601.648438 758.9375 595.800781 762.0625 C 589.957031 765.183594 584.039062 768.164062 578.046875 771 C 572.054688 773.832031 565.996094 776.515625 559.871094 779.054688 C 553.75 781.589844 547.566406 783.976562 541.328125 786.207031 C 535.085938 788.441406 528.792969 790.519531 522.453125 792.441406 C 516.109375 794.367188 509.722656 796.132812 503.292969 797.746094 C 496.863281 799.355469 490.398438 800.808594 483.898438 802.101562 C 477.398438 803.394531 470.871094 804.527344 464.3125 805.5 C 457.757812 806.472656 451.179688 807.28125 444.585938 807.933594 C 437.988281 808.582031 431.378906 809.070312 424.761719 809.394531 C 418.140625 809.71875 411.515625 809.882812 404.886719 809.882812 C 398.261719 809.882812 391.636719 809.71875 385.015625 809.394531 C 378.398438 809.070312 371.789062 808.582031 365.191406 807.933594 C 358.597656 807.28125 352.019531 806.472656 345.464844 805.5 C 338.90625 804.527344 332.378906 803.394531 325.878906 802.101562 C 319.378906 800.808594 312.914062 799.355469 306.484375 797.746094 C 300.054688 796.132812 293.667969 794.367188 287.324219 792.441406 C 280.984375 790.519531 274.691406 788.441406 268.449219 786.207031 C 262.210938 783.976562 256.027344 781.589844 249.90625 779.054688 C 243.78125 776.515625 237.722656 773.832031 231.730469 771 C 225.738281 768.164062 219.820312 765.183594 213.976562 762.0625 C 208.128906 758.9375 202.367188 755.671875 196.679688 752.261719 C 190.996094 748.855469 185.398438 745.308594 179.886719 741.628906 C 174.375 737.945312 168.957031 734.128906 163.632812 730.183594 C 158.3125 726.234375 153.085938 722.15625 147.964844 717.953125 C 142.839844 713.746094 137.824219 709.421875 132.910156 704.96875 C 128 700.519531 123.203125 695.949219 118.515625 691.261719 C 113.828125 686.574219 109.257812 681.777344 104.808594 676.867188 C 100.355469 671.953125 96.03125 666.9375 91.824219 661.8125 C 87.621094 656.691406 83.542969 651.464844 79.59375 646.144531 C 75.648438 640.820312 71.832031 635.402344 68.148438 629.890625 C 64.464844 624.378906 60.921875 618.78125 57.515625 613.097656 C 54.105469 607.410156 50.839844 601.648438 47.714844 595.800781 C 44.59375 589.957031 41.613281 584.039062 38.777344 578.046875 C 35.945312 572.054688 33.261719 565.996094 30.722656 559.871094 C 28.1875 553.75 25.800781 547.566406 23.570312 541.328125 C 21.335938 535.085938 19.257812 528.792969 17.335938 522.453125 C 15.410156 516.109375 13.644531 509.722656 12.03125 503.292969 C 10.421875 496.863281 8.96875 490.398438 7.675781 483.898438 C 6.382812 477.398438 5.25 470.871094 4.277344 464.3125 C 3.304688 457.757812 2.496094 451.179688 1.84375 444.585938 C 1.195312 437.988281 0.707031 431.378906 0.382812 424.761719 C 0.0585938 418.140625 -0.105469 411.515625 -0.105469 404.886719 C -0.105469 398.261719 0.0585938 391.636719 0.382812 385.015625 C 0.707031 378.398438 1.195312 371.789062 1.84375 365.191406 C 2.496094 358.597656 3.304688 352.019531 4.277344 345.464844 C 5.25 338.90625 6.382812 332.378906 7.675781 325.878906 C 8.96875 319.378906 10.421875 312.914062 12.03125 306.484375 C 13.644531 300.054688 15.410156 293.667969 17.335938 287.324219 C 19.257812 280.984375 21.335938 274.691406 23.570312 268.449219 C 25.800781 262.210938 28.1875 256.027344 30.722656 249.90625 C 33.261719 243.78125 35.945312 237.722656 38.777344 231.730469 C 41.613281 225.738281 44.59375 219.820312 47.714844 213.976562 C 50.839844 208.128906 54.105469 202.367188 57.515625 196.679688 C 60.921875 190.996094 64.464844 185.398438 68.148438 179.886719 C 71.832031 174.375 75.648438 168.957031 79.59375 163.632812 C 83.542969 158.3125 87.621094 153.085938 91.824219 147.964844 C 96.03125 142.839844 100.355469 137.824219 104.808594 132.910156 C 109.257812 128 113.828125 123.203125 118.515625 118.515625 C 123.203125 113.828125 128 109.257812 132.910156 104.808594 C 137.824219 100.355469 142.839844 96.03125 147.964844 91.824219 C 153.085938 87.621094 158.3125 83.542969 163.632812 79.59375 C 168.957031 75.648438 174.375 71.832031 179.886719 68.148438 C 185.398438 64.464844 190.996094 60.921875 196.679688 57.515625 C 202.367188 54.105469 208.128906 50.839844 213.976562 47.714844 C 219.820312 44.59375 225.738281 41.613281 231.730469 38.777344 C 237.722656 35.945312 243.78125 33.261719 249.90625 30.722656 C 256.027344 28.1875 262.210938 25.800781 268.449219 23.570312 C 274.691406 21.335938 280.984375 19.257812 287.324219 17.335938 C 293.667969 15.410156 300.054688 13.644531 306.484375 12.03125 C 312.914062 10.421875 319.378906 8.96875 325.878906 7.675781 C 332.378906 6.382812 338.90625 5.25 345.464844 4.277344 C 352.019531 3.304688 358.597656 2.496094 365.191406 1.84375 C 371.789062 1.195312 378.398438 0.707031 385.015625 0.382812 C 391.636719 0.0585938 398.261719 -0.105469 404.886719 -0.105469 C 411.515625 -0.105469 418.140625 0.0585938 424.761719 0.382812 C 431.378906 0.707031 437.988281 1.195312 444.585938 1.84375 C 451.179688 2.496094 457.757812 3.304688 464.3125 4.277344 C 470.871094 5.25 477.398438 6.382812 483.898438 7.675781 C 490.398438 8.96875 496.863281 10.421875 503.292969 12.03125 C 509.722656 13.644531 516.109375 15.410156 522.453125 17.335938 C 528.792969 19.257812 535.085938 21.335938 541.328125 23.570312 C 547.566406 25.800781 553.75 28.1875 559.871094 30.722656 C 565.996094 33.261719 572.054688 35.945312 578.046875 38.777344 C 584.039062 41.613281 589.957031 44.59375 595.800781 47.714844 C 601.648438 50.839844 607.410156 54.105469 613.097656 57.515625 C 618.78125 60.921875 624.378906 64.464844 629.890625 68.148438 C 635.402344 71.832031 640.820312 75.648438 646.144531 79.59375 C 651.464844 83.542969 656.691406 87.621094 661.8125 91.824219 C 666.9375 96.03125 671.953125 100.355469 676.867188 104.808594 C 681.777344 109.257812 686.574219 113.828125 691.261719 118.515625 C 695.949219 123.203125 700.519531 128 704.96875 132.910156 C 709.417969 137.824219 713.746094 142.839844 717.953125 147.964844 C 722.15625 153.085938 726.234375 158.3125 730.183594 163.632812 C 734.128906 168.957031 737.945312 174.375 741.628906 179.886719 C 745.308594 185.398438 748.855469 190.996094 752.261719 196.679688 C 755.671875 202.367188 758.9375 208.128906 762.0625 213.976562 C 765.183594 219.820312 768.164062 225.738281 771 231.730469 C 773.832031 237.722656 776.515625 243.78125 779.054688 249.90625 C 781.589844 256.027344 783.972656 262.210938 786.207031 268.449219 C 788.441406 274.691406 790.519531 280.984375 792.441406 287.324219 C 794.367188 293.667969 796.132812 300.054688 797.746094 306.484375 C 799.355469 312.914062 800.808594 319.378906 802.101562 325.878906 C 803.394531 332.378906 804.527344 338.90625 805.5 345.464844 C 806.472656 352.019531 807.28125 358.597656 807.933594 365.191406 C 808.582031 371.789062 809.070312 378.398438 809.394531 385.015625 C 809.71875 391.636719 809.882812 398.261719 809.882812 404.886719 Z M 809.882812 404.886719 " fill-opacity="1" fill-rule="nonzero"/><path fill="#ffffff" d="M 487.5625 460.984375 L 477.992188 470.707031 C 461.632812 487.332031 434.890625 487.546875 418.269531 471.183594 L 338.015625 392.195312 C 321.394531 375.832031 321.179688 349.09375 337.542969 332.472656 L 347.113281 322.75 C 357.984375 311.703125 357.84375 293.9375 346.796875 283.066406 L 280.019531 217.34375 C 271.066406 208.527344 256.660156 208.640625 247.84375 217.601562 C 198.574219 267.65625 195.789062 347.085938 241.429688 400.472656 L 272.601562 436.933594 C 303.652344 473.253906 337.769531 506.832031 374.578125 537.300781 L 411.53125 567.890625 C 465.636719 612.675781 545.007812 608.628906 594.277344 558.570312 C 603.09375 549.617188 602.980469 535.207031 594.023438 526.394531 L 527.246094 460.671875 C 516.203125 449.800781 498.433594 449.941406 487.5625 460.988281 Z M 487.5625 460.984375 " fill-opacity="1" fill-rule="nonzero"/></svg>