<svg xmlns="http://www.w3.org/2000/svg" xmlns:xlink="http://www.w3.org/1999/xlink" width="1080" zoomAndPan="magnify" viewBox="0 0 810 809.999993" height="1080" preserveAspectRatio="xMidYMid meet" version="1.0"><defs><clipPath id="d9ab80c615"><path d="M 405 0 C 181.324219 0 0 181.324219 0 405 C 0 628.675781 181.324219 810 405 810 C 628.675781 810 810 628.675781 810 405 C 810 181.324219 628.675781 0 405 0 Z M 405 0 " clip-rule="nonzero"/></clipPath><clipPath id="0f2dc21726"><path d="M 0 0 L 810 0 L 810 810 L 0 810 Z M 0 0 " clip-rule="nonzero"/></clipPath><clipPath id="9b4dc2b983"><path d="M 405 0 C 181.324219 0 0 181.324219 0 405 C 0 628.675781 181.324219 810 405 810 C 628.675781 810 810 628.675781 810 405 C 810 181.324219 628.675781 0 405 0 Z M 405 0 " clip-rule="nonzero"/></clipPath><clipPath id="99af5d3366"><rect x="0" width="810" y="0" height="810"/></clipPath><clipPath id="f4ab2cb08c"><path d="M 155.238281 180.953125 L 654.738281 180.953125 L 654.738281 629.046875 L 155.238281 629.046875 Z M 155.238281 180.953125 " clip-rule="nonzero"/></clipPath></defs><g clip-path="url(#d9ab80c615)"><g transform="matrix(1, 0, 0, 1, 0, 0.000000000000039746)"><g clip-path="url(#99af5d3366)"><g clip-path="url(#0f2dc21726)"><g clip-path="url(#9b4dc2b983)"><rect x="-178.2" width="1166.4" fill="#f8c954" height="1166.39999" y="-178.199998" fill-opacity="1"/></g></g></g></g></g><g clip-path="url(#f4ab2cb08c)"><path fill="#ffffff" d="M 381.632812 412.574219 L 428.742188 412.546875 C 482.605469 401.578125 521.972656 353.351562 521.972656 297.925781 C 521.972656 233.433594 469.492188 180.953125 405 180.953125 C 340.523438 180.953125 288.058594 233.433594 288.058594 297.925781 C 288.058594 353.351562 327.414062 401.578125 381.632812 412.574219 Z M 654.796875 594.320312 L 654.796875 625.652344 C 654.796875 627.511719 653.1875 629.046875 651.222656 629.046875 L 158.808594 629.046875 C 156.84375 629.046875 155.238281 627.511719 155.238281 625.652344 L 155.238281 594.320312 C 155.238281 496.191406 235.074219 416.355469 333.21875 416.355469 L 381.261719 416.355469 L 428.742188 416.3125 L 428.742188 416.355469 L 476.816406 416.355469 C 574.960938 416.355469 654.796875 496.191406 654.796875 594.320312 " fill-opacity="1" fill-rule="nonzero"/></g></svg>