<svg xmlns="http://www.w3.org/2000/svg" xmlns:xlink="http://www.w3.org/1999/xlink" width="1080" zoomAndPan="magnify" viewBox="0 0 810 809.999993" height="1080" preserveAspectRatio="xMidYMid meet" version="1.0"><defs><clipPath id="b2ff15536c"><path d="M 405 0 C 181.324219 0 0 181.324219 0 405 C 0 628.675781 181.324219 810 405 810 C 628.675781 810 810 628.675781 810 405 C 810 181.324219 628.675781 0 405 0 Z M 405 0 " clip-rule="nonzero"/></clipPath><clipPath id="21f37d453b"><path d="M 0 0 L 810 0 L 810 810 L 0 810 Z M 0 0 " clip-rule="nonzero"/></clipPath><clipPath id="4f7fabaeba"><path d="M 405 0 C 181.324219 0 0 181.324219 0 405 C 0 628.675781 181.324219 810 405 810 C 628.675781 810 810 628.675781 810 405 C 810 181.324219 628.675781 0 405 0 Z M 405 0 " clip-rule="nonzero"/></clipPath><clipPath id="146910a0db"><rect x="0" width="810" y="0" height="810"/></clipPath><clipPath id="56cfbf4387"><path d="M 154.363281 246.15625 L 373 246.15625 L 373 611.40625 L 154.363281 611.40625 Z M 154.363281 246.15625 " clip-rule="nonzero"/></clipPath><clipPath id="5298b39e1e"><path d="M 439 246.15625 L 656.863281 246.15625 L 656.863281 611.40625 L 439 611.40625 Z M 439 246.15625 " clip-rule="nonzero"/></clipPath></defs><g clip-path="url(#b2ff15536c)"><g transform="matrix(1, 0, 0, 1, 0, 0.000000000000039746)"><g clip-path="url(#146910a0db)"><g clip-path="url(#21f37d453b)"><g clip-path="url(#4f7fabaeba)"><rect x="-178.2" width="1166.4" fill="#f8c954" height="1166.39999" y="-178.199998" fill-opacity="1"/></g></g></g></g></g><g clip-path="url(#56cfbf4387)"><path fill="#ffffff" d="M 372.265625 246.15625 L 372.265625 413.535156 C 372.265625 413.941406 372.246094 414.34375 372.222656 414.75 C 372.179688 415.683594 372.140625 416.597656 372.074219 417.511719 C 372.074219 417.746094 372.054688 417.957031 372.03125 418.171875 C 362.808594 579.558594 236.402344 611.308594 236.402344 611.308594 L 209.265625 580.003906 C 251.726562 548.996094 257.65625 491.703125 257.1875 458.761719 L 154.542969 458.761719 L 154.542969 246.15625 Z M 372.265625 246.15625 " fill-opacity="1" fill-rule="nonzero"/></g><g clip-path="url(#5298b39e1e)"><path fill="#ffffff" d="M 656.964844 246.15625 L 656.964844 413.535156 C 656.964844 413.941406 656.945312 414.34375 656.921875 414.75 C 656.878906 415.683594 656.839844 416.597656 656.773438 417.511719 C 656.773438 417.746094 656.753906 417.957031 656.730469 418.171875 C 647.507812 579.558594 521.101562 611.308594 521.101562 611.308594 L 493.964844 580.003906 C 536.425781 548.996094 542.355469 491.703125 541.886719 458.761719 L 439.242188 458.761719 L 439.242188 246.15625 Z M 656.964844 246.15625 " fill-opacity="1" fill-rule="nonzero"/></g></svg>