<svg xmlns="http://www.w3.org/2000/svg" xmlns:xlink="http://www.w3.org/1999/xlink" width="1080" zoomAndPan="magnify" viewBox="0 0 810 809.999993" height="1080" preserveAspectRatio="xMidYMid meet" version="1.0"><defs><clipPath id="24e09cb0c6"><path d="M 405 0 C 181.324219 0 0 181.324219 0 405 C 0 628.675781 181.324219 810 405 810 C 628.675781 810 810 628.675781 810 405 C 810 181.324219 628.675781 0 405 0 Z M 405 0 " clip-rule="nonzero"/></clipPath><clipPath id="405fe89ad3"><path d="M 0 0 L 810 0 L 810 810 L 0 810 Z M 0 0 " clip-rule="nonzero"/></clipPath><clipPath id="a666c8a7b0"><path d="M 405 0 C 181.324219 0 0 181.324219 0 405 C 0 628.675781 181.324219 810 405 810 C 628.675781 810 810 628.675781 810 405 C 810 181.324219 628.675781 0 405 0 Z M 405 0 " clip-rule="nonzero"/></clipPath><clipPath id="5df03c9dbb"><rect x="0" width="810" y="0" height="810"/></clipPath></defs><g clip-path="url(#24e09cb0c6)"><g transform="matrix(1, 0, 0, 1, 0, 0.000000000000039746)"><g clip-path="url(#5df03c9dbb)"><g clip-path="url(#405fe89ad3)"><g clip-path="url(#a666c8a7b0)"><rect x="-178.2" width="1166.4" fill="#f8c954" height="1166.39999" y="-178.199998" fill-opacity="1"/></g></g></g></g></g><path fill="#ffffff" d="M 639.265625 336.742188 C 632.75 328.578125 622.375 324.609375 612.257812 323.296875 C 570.285156 319.007812 528.039062 316.460938 486.164062 311.683594 C 472.941406 280.816406 461.601562 249.027344 449.082031 217.816406 C 442.90625 203.222656 439.132812 186.839844 427.683594 175.226562 C 420.035156 167.160156 407.988281 162.878906 397.183594 166.542969 C 384.558594 170.570312 376.648438 182.535156 371.992188 194.304688 C 357.011719 232.226562 341.914062 270.078125 326.957031 308 C 326.121094 310.167969 325.070312 312.714844 322.261719 312.351562 C 282.089844 315.929688 241.917969 319.355469 201.746094 322.917969 C 189.738281 324.007812 176.878906 328.554688 170.082031 339.144531 C 162.128906 351.855469 165.414062 369.546875 175.480469 380.171875 C 208.945312 409.945312 241.804688 440.429688 275.183594 470.332031 C 267.1875 510.183594 258.035156 549.839844 249.675781 589.621094 C 248.109375 598.261719 244.125 606.621094 245.429688 615.578125 C 246.824219 628.382812 255.308594 641.539062 268.40625 644.558594 C 280.175781 647.15625 292.519531 643.203125 302.359375 636.730469 C 336.789062 614.632812 371.539062 593.023438 405.835938 570.753906 C 409.050781 572.234375 412.15625 573.953125 415.121094 575.898438 C 447.269531 596.652344 479.792969 616.796875 511.800781 637.738281 C 521.40625 645.261719 535.019531 647.089844 546.1875 642.171875 C 559.800781 636.640625 568.734375 621.613281 566.875 606.992188 C 556.710938 561.648438 546.230469 516.332031 536.753906 470.832031 C 566.789062 443.476562 596.476562 415.757812 626.421875 388.304688 C 631.355469 383.914062 636.945312 379.945312 640.230469 374.03125 C 646.871094 362.878906 647.792969 347.210938 639.265625 336.742188 Z M 639.265625 336.742188 " fill-opacity="1" fill-rule="nonzero"/></svg>