<svg xmlns="http://www.w3.org/2000/svg" xmlns:xlink="http://www.w3.org/1999/xlink" width="1080" zoomAndPan="magnify" viewBox="0 0 810 809.999993" height="1080" preserveAspectRatio="xMidYMid meet" version="1.0"><defs><clipPath id="54c3bd9cc5"><path d="M 405 0 C 181.324219 0 0 181.324219 0 405 C 0 628.675781 181.324219 810 405 810 C 628.675781 810 810 628.675781 810 405 C 810 181.324219 628.675781 0 405 0 Z M 405 0 " clip-rule="nonzero"/></clipPath><clipPath id="bd8e89dbae"><path d="M 0 0 L 810 0 L 810 810 L 0 810 Z M 0 0 " clip-rule="nonzero"/></clipPath><clipPath id="df4d6ba1f6"><path d="M 405 0 C 181.324219 0 0 181.324219 0 405 C 0 628.675781 181.324219 810 405 810 C 628.675781 810 810 628.675781 810 405 C 810 181.324219 628.675781 0 405 0 Z M 405 0 " clip-rule="nonzero"/></clipPath><clipPath id="d52f003cd8"><rect x="0" width="810" y="0" height="810"/></clipPath><clipPath id="2c43b533b1"><path d="M 171 417 L 646 417 L 646 592.492188 L 171 592.492188 Z M 171 417 " clip-rule="nonzero"/></clipPath></defs><g clip-path="url(#54c3bd9cc5)"><g transform="matrix(1, 0, 0, 1, 0, 0.000000000000039746)"><g clip-path="url(#d52f003cd8)"><g clip-path="url(#bd8e89dbae)"><g clip-path="url(#df4d6ba1f6)"><rect x="-178.2" width="1166.4" fill="#f8c954" height="1166.39999" y="-178.199998" fill-opacity="1"/></g></g></g></g></g><g clip-path="url(#2c43b533b1)"><path fill="#ffffff" d="M 644.316406 417.824219 C 646.113281 421.242188 645.023438 451.261719 645.027344 456.726562 L 645.023438 550.898438 C 645.007812 577.492188 639.992188 591.832031 610.324219 592.257812 C 579.355469 592.699219 548.316406 592.265625 517.339844 592.269531 L 212.992188 592.28125 C 170.640625 592.277344 171.949219 575.628906 171.945312 541.992188 L 171.960938 501.421875 C 171.960938 473.542969 172.21875 445.632812 171.8125 417.757812 C 182.382812 434.316406 203.765625 438.703125 221.621094 442.195312 L 327.292969 462.753906 C 343.164062 465.851562 359.890625 468.640625 375.527344 472.382812 L 375.515625 473.730469 C 375.242188 507.511719 409.6875 523.855469 432.007812 500.910156 C 440.167969 492.519531 441.632812 483.425781 441.519531 472.183594 C 453.058594 470.417969 464.425781 467.421875 475.882812 465.183594 L 554.414062 449.886719 C 583.394531 444.082031 626.144531 441.5 644.316406 417.824219 Z M 644.316406 417.824219 " fill-opacity="1" fill-rule="nonzero"/></g><path fill="#ffffff" d="M 356.875 204.75 L 357.308594 204.734375 C 381.019531 204.023438 404.902344 204.570312 428.628906 204.570312 L 451.707031 204.578125 C 464.589844 204.582031 475.167969 204.097656 485.183594 213.585938 C 499.976562 227.601562 495.460938 255.441406 496.113281 275.359375 L 605.957031 275.335938 C 650.566406 274.96875 644.875 297.800781 644.839844 331.113281 L 645.035156 360.230469 C 645 384.558594 640.554688 406.855469 614.496094 417.320312 C 604.179688 421.460938 592.429688 422.621094 581.550781 424.667969 L 474.507812 445.695312 C 463.542969 447.964844 452.585938 450.679688 441.574219 452.664062 C 441.71875 447.558594 441.847656 442.550781 441.367188 437.457031 C 437.851562 417.632812 426.402344 418.476562 409.316406 418.535156 C 380.015625 418.636719 374.519531 421.800781 375.535156 452.695312 C 368.195312 451.730469 360.851562 449.441406 353.570312 447.96875 L 237.996094 425.238281 C 210.5 419.992188 181.789062 417.980469 173.511719 383.914062 C 170.660156 372.1875 171.96875 349.253906 171.96875 336.933594 C 171.96875 315.339844 166.109375 280.847656 195.46875 275.84375 C 200.941406 274.910156 206.882812 275.332031 212.433594 275.339844 L 290.207031 275.347656 C 300.519531 275.34375 310.886719 275.140625 321.191406 275.527344 C 321.71875 243.890625 314.390625 206.859375 356.875 204.75 Z M 358.988281 234.453125 C 356.71875 234.609375 353.089844 234.4375 351.332031 235.980469 C 349.277344 240.859375 350.449219 268.507812 351.007812 275.523438 C 362.859375 275.078125 374.785156 275.347656 386.644531 275.347656 L 458.34375 275.320312 C 461.011719 275.296875 463.683594 275.230469 466.351562 275.265625 L 466.375 250.597656 C 466.378906 231.007812 467.65625 234.304688 445.722656 234.296875 L 420.769531 234.292969 C 400.195312 234.296875 379.550781 233.976562 358.988281 234.453125 Z M 358.988281 234.453125 " fill-opacity="1" fill-rule="nonzero"/></svg>